<?xml version="1.0" encoding="utf-8"?>
<!-- Generator: Adobe Illustrator 17.1.0, SVG Export Plug-In . SVG Version: 6.00 Build 0)  -->
<!DOCTYPE svg PUBLIC "-//W3C//DTD SVG 1.1//EN" "http://www.w3.org/Graphics/SVG/1.1/DTD/svg11.dtd">
<svg version="1.1" id="Calque_1" xmlns="http://www.w3.org/2000/svg" xmlns:xlink="http://www.w3.org/1999/xlink" x="0px" y="0px"
	 viewBox="0 0 100 35.2" enable-background="new 0 0 100 35.2" xml:space="preserve">
<g>
	<g>
		<path fill="#FFFFFF" d="M9.7,22.6c-1.4-4.4-2.3-7.2-2.6-8.3c-0.2,0.7-0.4,1.4-0.6,2.2c-0.2,0.8-0.5,1.4-0.6,2
			c-0.2,0.6-0.4,1.3-0.7,2.2c-0.3,0.9-0.5,1.6-0.7,2H2.8L0,12.7h1.6l2.1,8.1c0.3-1,1.2-3.7,2.6-8.1H8c1.4,4.5,2.3,7.2,2.5,8.1
			l2.1-8.1h1.5l-2.9,9.9H9.7z"/>
		<path fill="#FFFFFF" d="M19.7,22.8c-1.4,0-2.6-0.5-3.4-1.4c-0.8-0.9-1.2-2.2-1.2-3.8c0-1.5,0.4-2.8,1.2-3.7c0.8-1,1.9-1.4,3.2-1.5
			c1.2,0,2.2,0.4,2.9,1.3c0.7,0.8,1.1,2,1.1,3.4c0,0.1,0,0.2,0,0.4c0,0.2,0,0.3,0,0.4h-6.8c0,1.1,0.3,2,0.9,2.6
			c0.6,0.6,1.3,0.9,2.3,0.9c1,0,2.1-0.3,3.2-0.8l0.2,1.2C22.2,22.5,21,22.8,19.7,22.8z M21.3,14.6c-0.4-0.5-1-0.8-1.8-0.8
			S18,14,17.6,14.6c-0.5,0.5-0.8,1.3-0.9,2.2h5.2C21.9,15.8,21.7,15.1,21.3,14.6z"/>
	</g>
	<g>
		<path fill="#FFFFFF" d="M67.4,23.7l-3.8-9.9h1.6l2.2,5.9l0.9,2.5c0.2-0.6,0.5-1.5,0.8-2.5c0.5-1.3,1.2-3.3,2.1-5.9h1.6L69,23.7
			H67.4z"/>
		<path fill="#FFFFFF" d="M78.3,23.9c-1.4,0-2.6-0.5-3.4-1.4c-0.8-0.9-1.2-2.2-1.2-3.8c0-1.5,0.4-2.8,1.2-3.7c0.8-1,1.9-1.4,3.2-1.5
			c1.2,0,2.2,0.4,2.9,1.3c0.7,0.8,1.1,2,1.1,3.4c0,0.1,0,0.2,0,0.4c0,0.2,0,0.3,0,0.4h-6.8c0,1.1,0.3,2,0.9,2.6
			c0.6,0.6,1.3,0.9,2.3,0.9c1,0,2.1-0.3,3.2-0.8l0.2,1.2C80.7,23.6,79.5,23.9,78.3,23.9z M79.8,15.6c-0.4-0.5-1-0.8-1.8-0.8
			c-0.8,0-1.4,0.3-1.9,0.8c-0.5,0.5-0.8,1.3-0.9,2.2h5.2C80.4,16.9,80.2,16.1,79.8,15.6z"/>
		<path fill="#FFFFFF" d="M84.1,23.7v-9.9h1.3l0.2,1.4c0.4-0.5,0.9-0.9,1.5-1.2c0.6-0.3,1.2-0.4,1.9-0.4c1.1,0,2,0.3,2.5,1
			c0.5,0.6,0.8,1.6,0.8,3v6.2h-1.5c0-4,0-6.1,0-6.4c0-0.8-0.2-1.5-0.5-1.9c-0.3-0.4-0.8-0.6-1.6-0.6c-0.8,0-1.4,0.2-1.9,0.6
			s-0.9,0.9-1,1.5c-0.1,0.4-0.1,0.9-0.1,1.4v5.4H84.1z"/>
		<path fill="#FFFFFF" d="M97.9,23.9c-1,0-1.7-0.2-2.1-0.7c-0.4-0.5-0.6-1.2-0.7-2.3v-6h-1.5l0.1-1l1.4-0.1l0.5-2.3l1,0v2.3h2.8v1.1
			h-2.8v5.7c0,0.8,0.1,1.3,0.3,1.6s0.6,0.5,1.2,0.5c0.2,0,0.6,0,1.3-0.1l0.1,1.2C98.9,23.8,98.3,23.9,97.9,23.9z"/>
	</g>
	<circle fill="#7BD27F" cx="43.8" cy="17.7" r="17.5"/>
	<path d="M38.1,11.6c0.3,0,0.5,0,0.8,0c0.3,0,0.6,0,0.9,0.1c0.3,0,0.6,0.1,0.8,0.1c0.3,0.1,0.5,0.1,0.7,0.3c0.4,0.2,0.7,0.6,1,1
		c0.3,0.4,0.4,0.9,0.4,1.6c0,0.6-0.2,1.2-0.5,1.7c-0.3,0.5-0.8,0.8-1.3,1.1v0c0.8,0.2,1.3,0.5,1.7,1c0.4,0.5,0.6,1.2,0.6,1.9
		c0,0.4-0.1,0.9-0.2,1.3c-0.2,0.4-0.4,0.8-0.7,1.1c-0.3,0.3-0.7,0.6-1.2,0.8c-0.5,0.2-1,0.3-1.6,0.3h-5.9V11.6H38.1z M38.5,16.8
		c0.9,0,1.6-0.2,2-0.5c0.4-0.3,0.6-0.8,0.6-1.5c0-0.4-0.1-0.8-0.2-1c-0.1-0.3-0.3-0.4-0.6-0.6c-0.2-0.1-0.5-0.2-0.8-0.3
		c-0.3,0-0.6-0.1-1-0.1h-3.2v3.9H38.5z M39.4,22.4c0.7,0,1.3-0.2,1.7-0.6s0.6-0.9,0.6-1.6c0-0.4-0.1-0.7-0.2-1
		c-0.1-0.3-0.3-0.5-0.6-0.6c-0.2-0.2-0.5-0.3-0.8-0.3c-0.3-0.1-0.6-0.1-1-0.1h-3.7v4.2H39.4z"/>
	<path d="M53.8,11.6V13H47v3.9h6.3v1.4H47v4.2h6.8v1.4h-8.5V11.6H53.8z"/>
</g>
</svg>
